<svg width="221" height="357" viewBox="0 0 221 357" fill="none" xmlns="http://www.w3.org/2000/svg">
<path d="M135.332 332.881H90.7403C90.0946 332.881 89.5818 332.418 89.5818 331.836V217.307C89.5818 216.999 89.7338 216.725 89.9806 216.519L134.572 181.437C134.914 181.163 135.389 181.112 135.807 181.266C136.224 181.437 136.49 181.797 136.49 182.208V147.11C136.49 147.401 136.357 147.692 136.091 147.898L63.5068 205.83C63.5068 205.83 63.4498 205.899 63.4498 205.95V356.006C63.4498 356.246 63.6777 356.451 63.9436 356.451H136.49V331.836C136.49 332.418 135.978 332.881 135.332 332.881Z" fill="#FFB000"/>
<path d="M300.727 205.813L187.786 106.855C187.786 106.855 187.615 106.786 187.539 106.855L164.54 125.201C164.199 125.475 163.724 125.543 163.306 125.372C162.888 125.201 162.622 124.841 162.622 124.413V159.837C162.622 159.529 162.774 159.255 163.021 159.049L186.893 140.275C187.102 140.104 187.387 140.018 187.653 140.018C187.957 140.018 188.242 140.121 188.469 140.309L274.291 216.519C274.519 216.707 274.633 216.982 274.633 217.256V355.989C274.633 356.229 274.861 356.434 275.127 356.434H300.29C300.556 356.434 300.784 356.229 300.784 355.989V205.916C300.784 205.916 300.765 205.83 300.727 205.796V205.813Z" fill="#FFB000"/>
<path d="M162.148 0H0.493773C0.227895 0 0 0.205556 0 0.445371V356.023C0 356.263 0.227895 356.468 0.493773 356.468H25.6572C25.9231 356.468 26.151 356.263 26.151 356.023V24.8894C26.151 24.1528 26.8157 23.5704 27.6133 23.5704H135.028C135.845 23.5704 136.49 24.17 136.49 24.8894V356.451H162.129C162.394 356.451 162.622 356.246 162.622 356.006V0.445371C162.622 0.205556 162.394 0 162.129 0H162.148Z" fill="#FF8500"/>
</svg>
