<svg width="34" height="34" viewBox="0 0 34 34" fill="none" xmlns="http://www.w3.org/2000/svg">
<path d="M18.4563 2.83325C20.0501 2.8375 20.859 2.846 21.5574 2.86584L21.8323 2.87575C22.1496 2.88709 22.4627 2.90125 22.8409 2.91825C24.3483 2.98909 25.3768 3.22709 26.2792 3.577C27.2142 3.93684 28.0018 4.42417 28.7895 5.21042C29.5099 5.9186 30.0673 6.77525 30.4229 7.72075C30.7728 8.62317 31.0108 9.65167 31.0817 11.1604C31.0987 11.5373 31.1128 11.8503 31.1242 12.1691L31.1327 12.4439C31.1539 13.1409 31.1624 13.9498 31.1653 15.5436L31.1667 16.6004V18.4563C31.1702 19.4896 31.1593 20.5229 31.1341 21.5559L31.1256 21.8308C31.1143 22.1495 31.1001 22.4626 31.0831 22.8394C31.0123 24.3482 30.7714 25.3753 30.4229 26.2791C30.0683 27.2251 29.5108 28.082 28.7895 28.7894C28.0811 29.5095 27.2245 30.0669 26.2792 30.4228C25.3768 30.7728 24.3483 31.0108 22.8409 31.0816C22.5048 31.0974 22.1685 31.1116 21.8323 31.1241L21.5574 31.1326C20.859 31.1524 20.0501 31.1623 18.4563 31.1652L17.3995 31.1666H15.5451C14.5113 31.1702 13.4775 31.1593 12.444 31.134L12.1692 31.1255C11.8329 31.1128 11.4966 31.0981 11.1605 31.0816C9.65317 31.0108 8.62467 30.7728 7.72084 30.4228C6.77545 30.0678 5.91914 29.5103 5.21192 28.7894C4.4909 28.0815 3.93299 27.2248 3.57709 26.2791C3.22717 25.3767 2.98917 24.3482 2.91834 22.8394C2.90255 22.5033 2.88839 22.167 2.87584 21.8308L2.86875 21.5559C2.84265 20.5229 2.83084 19.4896 2.83334 18.4563V15.5436C2.82938 14.5103 2.83977 13.4769 2.8645 12.4439L2.87442 12.1691C2.88575 11.8503 2.89992 11.5373 2.91692 11.1604C2.98775 9.65167 3.22575 8.62459 3.57567 7.72075C3.93142 6.77428 4.49044 5.91737 5.21334 5.21042C5.92038 4.49001 6.77612 3.93257 7.72084 3.577C8.62467 3.22709 9.65175 2.98909 11.1605 2.91825C11.5373 2.90125 11.8518 2.88709 12.1692 2.87575L12.444 2.86725C13.477 2.84208 14.5103 2.83122 15.5437 2.83467L18.4563 2.83325ZM17 9.91659C15.1214 9.91659 13.3197 10.6629 11.9913 11.9912C10.6629 13.3196 9.91667 15.1213 9.91667 16.9999C9.91667 18.8785 10.6629 20.6802 11.9913 22.0086C13.3197 23.337 15.1214 24.0833 17 24.0833C18.8786 24.0833 20.6803 23.337 22.0087 22.0086C23.3371 20.6802 24.0833 18.8785 24.0833 16.9999C24.0833 15.1213 23.3371 13.3196 22.0087 11.9912C20.6803 10.6629 18.8786 9.91659 17 9.91659ZM17 12.7499C17.5581 12.7498 18.1108 12.8597 18.6265 13.0732C19.1421 13.2867 19.6107 13.5996 20.0054 13.9942C20.4001 14.3888 20.7133 14.8573 20.9269 15.3729C21.1406 15.8885 21.2506 16.4411 21.2507 16.9992C21.2508 17.5573 21.141 18.11 20.9275 18.6257C20.714 19.1413 20.401 19.6099 20.0064 20.0046C19.6118 20.3993 19.1434 20.7125 18.6278 20.9261C18.1122 21.1398 17.5595 21.2498 17.0014 21.2499C15.8743 21.2499 14.7932 20.8022 13.9962 20.0051C13.1992 19.2081 12.7514 18.1271 12.7514 16.9999C12.7514 15.8727 13.1992 14.7917 13.9962 13.9947C14.7932 13.1977 15.8743 12.7499 17.0014 12.7499M24.4389 7.79159C23.9693 7.79159 23.5189 7.97816 23.1868 8.31025C22.8547 8.64235 22.6681 9.09276 22.6681 9.56242C22.6681 10.0321 22.8547 10.4825 23.1868 10.8146C23.5189 11.1467 23.9693 11.3333 24.4389 11.3333C24.9086 11.3333 25.359 11.1467 25.6911 10.8146C26.0232 10.4825 26.2098 10.0321 26.2098 9.56242C26.2098 9.09276 26.0232 8.64235 25.6911 8.31025C25.359 7.97816 24.9086 7.79159 24.4389 7.79159Z" fill="#FFC700"/>
</svg>
