<svg width="34" height="34" viewBox="0 0 34 34" fill="none" xmlns="http://www.w3.org/2000/svg">
<path d="M17.0014 2.83325C24.8257 2.83325 31.1681 9.17567 31.1681 16.9999C31.1681 24.8242 24.8257 31.1666 17.0014 31.1666C14.4978 31.1706 12.0383 30.5081 9.87557 29.247L2.8404 31.1666L4.75574 24.1286C3.49362 21.9652 2.83055 19.5046 2.83474 16.9999C2.83474 9.17567 9.17715 2.83325 17.0014 2.83325ZM12.1734 10.3416L11.8901 10.3529C11.7066 10.3641 11.5274 10.4123 11.3631 10.4946C11.2094 10.5816 11.0691 10.6904 10.9466 10.8176C10.7766 10.9777 10.6802 11.1165 10.5768 11.2511C10.0528 11.9324 9.7707 12.7688 9.77499 13.6283C9.77782 14.3224 9.95915 14.9982 10.2425 15.63C10.8219 16.9078 11.7753 18.2608 13.0333 19.5145C13.3365 19.8163 13.634 20.1194 13.9542 20.4013C15.5173 21.7776 17.38 22.7701 19.3942 23.2998L20.1988 23.4231C20.4609 23.4373 20.723 23.4174 20.9865 23.4047C21.3991 23.3834 21.8019 23.2717 22.1666 23.0774C22.3521 22.9819 22.5331 22.8779 22.7092 22.7658C22.7092 22.7658 22.7701 22.7261 22.8862 22.6383C23.0775 22.4966 23.1951 22.396 23.3537 22.2303C23.4713 22.1084 23.5733 21.9653 23.6512 21.8024C23.7617 21.5715 23.8722 21.1309 23.9176 20.764C23.9516 20.4835 23.9417 20.3305 23.9374 20.2356C23.9317 20.084 23.8057 19.9268 23.6682 19.8602L22.8437 19.4904C22.8437 19.4904 21.6112 18.9535 20.8576 18.6107C20.7787 18.5762 20.6942 18.5565 20.6082 18.5526C20.5113 18.5426 20.4134 18.5535 20.321 18.5846C20.2286 18.6156 20.144 18.666 20.0727 18.7325C20.0657 18.7297 19.9707 18.8104 18.9465 20.0514C18.8877 20.1304 18.8067 20.1901 18.7139 20.2229C18.621 20.2557 18.5205 20.2601 18.4252 20.2356C18.3329 20.2108 18.2424 20.1796 18.1546 20.1421C17.9789 20.0684 17.918 20.0401 17.7976 19.9891C16.9845 19.6343 16.2317 19.1549 15.5663 18.5682C15.3878 18.4123 15.2221 18.2423 15.0521 18.078C14.4947 17.5442 14.009 16.9404 13.6071 16.2817L13.5235 16.1471C13.4635 16.0567 13.4149 15.9591 13.379 15.8567C13.3252 15.6484 13.4654 15.4813 13.4654 15.4813C13.4654 15.4813 13.8097 15.1044 13.9697 14.9004C14.1256 14.7021 14.2573 14.5094 14.3423 14.372C14.5095 14.1028 14.5619 13.8266 14.4741 13.6127C14.0774 12.6437 13.6666 11.6789 13.2444 10.7213C13.1608 10.5314 12.9129 10.3954 12.6877 10.3685C12.6112 10.36 12.5347 10.3515 12.4582 10.3458C12.2679 10.3364 12.0773 10.3383 11.8872 10.3515L12.1734 10.3416Z" fill="#FFC700"/>
</svg>
