<svg width="258" height="85" viewBox="0 0 258 85" fill="none" xmlns="http://www.w3.org/2000/svg">
<g clip-path="url(#clip0_10_243)">
<path d="M65.1464 85C65.2058 85 65.2539 84.9523 65.2539 84.8934V49.1051C65.2539 49.1051 65.2483 49.0855 65.2426 49.0771L40.7406 25.4781C40.7264 25.4641 40.7038 25.4641 40.6896 25.4781L35.6993 29.8535C35.6257 29.918 35.521 29.9348 35.4305 29.8928C35.34 29.8507 35.2834 29.7637 35.2834 29.6656V0.10658C35.2834 0.0476803 35.2353 0 35.1759 0H0.107502C0.0480932 0 0 0.0476803 0 0.10658V84.8962C0 84.9551 0.0480932 85.0028 0.107502 85.0028H5.56466C5.62407 85.0028 5.67216 84.9551 5.67216 84.8962V5.9376C5.67216 5.76371 5.81361 5.62067 5.99184 5.62067H29.2972C29.4726 5.62067 29.6169 5.76091 29.6169 5.9376V35.0815C29.6169 35.1516 29.5858 35.2217 29.532 35.2666L13.7829 49.0799C13.7829 49.0799 13.7688 49.0967 13.7688 49.1079V84.8906C13.7688 84.9495 13.8169 84.9972 13.8763 84.9972H35.1816C35.241 84.9972 35.2891 84.9495 35.2891 84.8906V38.1134C35.2891 38.0405 35.3202 37.9732 35.3739 37.9255L40.5539 33.4463C40.6019 33.4043 40.6585 33.3846 40.7179 33.3846C40.783 33.3846 40.8452 33.4071 40.8933 33.4548L59.5139 51.6266C59.562 51.6743 59.5903 51.7388 59.5903 51.8033V84.885C59.5903 84.9439 59.6384 84.9916 59.6978 84.9916H65.1549L65.1464 85ZM29.6112 79.1297C29.6112 79.2671 29.4981 79.3793 29.3595 79.3793H19.6842C19.5456 79.3793 19.4325 79.2671 19.4325 79.1297V51.8173C19.4325 51.7444 19.4636 51.6771 19.5202 51.6294L29.1954 43.2657C29.2718 43.2012 29.3736 43.1872 29.4641 43.2264C29.5547 43.2685 29.6112 43.3554 29.6112 43.4536V79.1297Z" fill="white"/>
<path d="M115.149 84.9325H114.513C114.439 84.9325 114.38 84.9157 114.334 84.8792C114.289 84.8428 114.255 84.7979 114.233 84.739L113.664 83.2833H110.937L110.368 84.739C110.348 84.7895 110.314 84.8343 110.266 84.8736C110.218 84.9129 110.159 84.9325 110.088 84.9325H109.452L111.882 78.9023H112.719L115.149 84.9325ZM111.166 82.6943H113.438L112.481 80.2402C112.419 80.0887 112.357 79.9008 112.298 79.6708C112.266 79.7858 112.235 79.8924 112.207 79.9878C112.176 80.0831 112.148 80.1701 112.119 80.243L111.163 82.6915L111.166 82.6943Z" fill="white"/>
<path d="M119.667 79.8449C119.642 79.887 119.613 79.9178 119.585 79.9403C119.557 79.9599 119.52 79.9711 119.475 79.9711C119.427 79.9711 119.37 79.9487 119.308 79.901C119.246 79.8533 119.164 79.8 119.064 79.7439C118.968 79.685 118.849 79.6346 118.714 79.5869C118.575 79.5392 118.411 79.5168 118.216 79.5168C118.032 79.5168 117.868 79.542 117.726 79.5897C117.585 79.6402 117.466 79.7047 117.373 79.7888C117.279 79.873 117.206 79.9711 117.158 80.0861C117.11 80.2011 117.087 80.3217 117.087 80.4535C117.087 80.6218 117.129 80.7621 117.211 80.8714C117.294 80.9836 117.404 81.0762 117.542 81.1547C117.681 81.2333 117.837 81.3006 118.009 81.3595C118.182 81.4184 118.363 81.4773 118.544 81.539C118.728 81.6007 118.906 81.6708 119.079 81.7465C119.251 81.825 119.407 81.9204 119.545 82.0382C119.684 82.156 119.794 82.299 119.876 82.4701C119.958 82.6412 120.001 82.8516 120.001 83.1012C120.001 83.3648 119.956 83.6117 119.865 83.8444C119.775 84.0744 119.642 84.2764 119.469 84.4475C119.294 84.6186 119.081 84.7532 118.827 84.8513C118.575 84.9495 118.287 85 117.964 85C117.571 85 117.211 84.9299 116.889 84.7868C116.564 84.6466 116.289 84.4531 116.06 84.2119L116.298 83.8248C116.32 83.794 116.349 83.7687 116.38 83.7463C116.411 83.7266 116.448 83.7154 116.487 83.7154C116.547 83.7154 116.615 83.7463 116.691 83.8108C116.767 83.8725 116.864 83.9426 116.977 84.0183C117.093 84.0941 117.231 84.1642 117.393 84.2259C117.554 84.2904 117.755 84.3213 117.989 84.3213C118.185 84.3213 118.357 84.296 118.51 84.2399C118.663 84.1866 118.793 84.1109 118.898 84.0155C119.005 83.9202 119.084 83.8024 119.141 83.6677C119.197 83.5331 119.226 83.3845 119.226 83.219C119.226 83.0367 119.183 82.888 119.101 82.7702C119.019 82.6524 118.909 82.5571 118.773 82.4785C118.637 82.4 118.482 82.3327 118.309 82.2794C118.137 82.2233 117.956 82.1672 117.774 82.1111C117.593 82.055 117.412 81.9877 117.24 81.912C117.064 81.8363 116.912 81.7381 116.776 81.6175C116.64 81.4969 116.53 81.3454 116.448 81.1659C116.366 80.9864 116.323 80.7621 116.323 80.4956C116.323 80.2824 116.366 80.0777 116.448 79.8786C116.53 79.6794 116.651 79.5027 116.81 79.3485C116.968 79.1942 117.163 79.0708 117.398 78.9782C117.633 78.8857 117.899 78.8408 118.202 78.8408C118.541 78.8408 118.849 78.8941 119.132 79.0007C119.412 79.1073 119.656 79.2615 119.865 79.4635L119.664 79.8505L119.667 79.8449Z" fill="white"/>
<path d="M124.802 79.8449C124.776 79.887 124.748 79.9178 124.72 79.9403C124.691 79.9599 124.655 79.9711 124.609 79.9711C124.561 79.9711 124.505 79.9487 124.442 79.901C124.38 79.8533 124.298 79.8 124.199 79.7439C124.103 79.685 123.984 79.6346 123.848 79.5869C123.71 79.5392 123.546 79.5168 123.35 79.5168C123.167 79.5168 123.003 79.542 122.861 79.5897C122.72 79.6402 122.601 79.7047 122.507 79.7888C122.414 79.873 122.341 79.9711 122.292 80.0861C122.244 80.2011 122.222 80.3217 122.222 80.4535C122.222 80.6218 122.264 80.7621 122.346 80.8714C122.428 80.9836 122.539 81.0762 122.677 81.1547C122.816 81.2333 122.971 81.3006 123.144 81.3595C123.317 81.4184 123.498 81.4773 123.679 81.539C123.863 81.6007 124.041 81.6708 124.213 81.7465C124.386 81.825 124.541 81.9204 124.68 82.0382C124.819 82.156 124.929 82.299 125.011 82.4701C125.093 82.6412 125.136 82.8516 125.136 83.1012C125.136 83.3648 125.09 83.6117 125 83.8444C124.909 84.0744 124.776 84.2764 124.604 84.4475C124.428 84.6186 124.216 84.7532 123.962 84.8513C123.71 84.9495 123.421 85 123.099 85C122.705 85 122.346 84.9299 122.024 84.7868C121.698 84.6466 121.424 84.4531 121.195 84.2119L121.432 83.8248C121.455 83.794 121.483 83.7687 121.514 83.7463C121.546 83.7266 121.582 83.7154 121.622 83.7154C121.681 83.7154 121.749 83.7463 121.826 83.8108C121.902 83.8725 121.998 83.9426 122.111 84.0183C122.227 84.0941 122.366 84.1642 122.527 84.2259C122.688 84.2904 122.889 84.3213 123.124 84.3213C123.319 84.3213 123.492 84.296 123.645 84.2399C123.797 84.1866 123.928 84.1109 124.032 84.0155C124.14 83.9202 124.219 83.8024 124.276 83.6677C124.332 83.5331 124.36 83.3845 124.36 83.219C124.36 83.0367 124.318 82.888 124.236 82.7702C124.154 82.6524 124.044 82.5571 123.908 82.4785C123.772 82.4 123.616 82.3327 123.444 82.2794C123.271 82.2233 123.09 82.1672 122.909 82.1111C122.728 82.055 122.547 81.9877 122.374 81.912C122.199 81.8363 122.046 81.7381 121.911 81.6175C121.775 81.4969 121.664 81.3454 121.582 81.1659C121.5 80.9864 121.458 80.7621 121.458 80.4956C121.458 80.2824 121.5 80.0777 121.582 79.8786C121.664 79.6794 121.786 79.5027 121.944 79.3485C122.103 79.1942 122.298 79.0708 122.533 78.9782C122.768 78.8857 123.034 78.8408 123.336 78.8408C123.676 78.8408 123.984 78.8941 124.267 79.0007C124.547 79.1073 124.79 79.2615 125 79.4635L124.799 79.8505L124.802 79.8449Z" fill="white"/>
<path d="M130.57 78.9025V79.5672H127.651V81.5698H130.013V82.2092H127.651V84.2651H130.57V84.9298H126.822V78.8997H130.57V78.9025Z" fill="white"/>
<path d="M135.504 79.8449C135.478 79.887 135.45 79.9178 135.422 79.9403C135.394 79.9599 135.357 79.9711 135.311 79.9711C135.263 79.9711 135.207 79.9487 135.145 79.901C135.082 79.8533 135 79.8 134.901 79.7439C134.805 79.685 134.686 79.6346 134.55 79.5869C134.412 79.5392 134.248 79.5168 134.053 79.5168C133.869 79.5168 133.705 79.542 133.563 79.5897C133.422 79.6402 133.303 79.7047 133.21 79.7888C133.116 79.873 133.043 79.9711 132.995 80.0861C132.946 80.2011 132.924 80.3217 132.924 80.4535C132.924 80.6218 132.966 80.7621 133.048 80.8714C133.13 80.9836 133.241 81.0762 133.379 81.1547C133.518 81.2333 133.673 81.3006 133.846 81.3595C134.019 81.4184 134.2 81.4773 134.381 81.539C134.565 81.6007 134.743 81.6708 134.915 81.7465C135.088 81.825 135.244 81.9204 135.382 82.0382C135.521 82.156 135.631 82.299 135.713 82.4701C135.795 82.6412 135.838 82.8516 135.838 83.1012C135.838 83.3648 135.792 83.6117 135.702 83.8444C135.611 84.0744 135.478 84.2764 135.306 84.4475C135.13 84.6186 134.918 84.7532 134.664 84.8513C134.412 84.9495 134.123 85 133.801 85C133.408 85 133.048 84.9299 132.726 84.7868C132.4 84.6466 132.126 84.4531 131.897 84.2119L132.135 83.8248C132.157 83.794 132.185 83.7687 132.217 83.7463C132.248 83.7266 132.284 83.7154 132.324 83.7154C132.383 83.7154 132.451 83.7463 132.528 83.8108C132.604 83.8725 132.7 83.9426 132.813 84.0183C132.929 84.0941 133.068 84.1642 133.229 84.2259C133.391 84.2904 133.591 84.3213 133.826 84.3213C134.021 84.3213 134.194 84.296 134.347 84.2399C134.5 84.1866 134.63 84.1109 134.734 84.0155C134.842 83.9202 134.921 83.8024 134.978 83.6677C135.034 83.5331 135.063 83.3845 135.063 83.219C135.063 83.0367 135.02 82.888 134.938 82.7702C134.856 82.6524 134.746 82.5571 134.61 82.4785C134.474 82.4 134.319 82.3327 134.146 82.2794C133.973 82.2233 133.792 82.1672 133.611 82.1111C133.43 82.055 133.249 81.9877 133.077 81.912C132.901 81.8363 132.748 81.7381 132.613 81.6175C132.477 81.4969 132.366 81.3454 132.284 81.1659C132.202 80.9864 132.16 80.7621 132.16 80.4956C132.16 80.2824 132.202 80.0777 132.284 79.8786C132.366 79.6794 132.488 79.5027 132.647 79.3485C132.805 79.1942 133 79.0708 133.235 78.9782C133.47 78.8857 133.736 78.8408 134.038 78.8408C134.378 78.8408 134.686 78.8941 134.969 79.0007C135.249 79.1073 135.493 79.2615 135.702 79.4635L135.501 79.8505L135.504 79.8449Z" fill="white"/>
<path d="M140.639 79.8449C140.613 79.887 140.585 79.9178 140.556 79.9403C140.528 79.9599 140.491 79.9711 140.446 79.9711C140.398 79.9711 140.341 79.9487 140.279 79.901C140.217 79.8533 140.135 79.8 140.036 79.7439C139.94 79.685 139.821 79.6346 139.685 79.5869C139.547 79.5392 139.382 79.5168 139.187 79.5168C139.003 79.5168 138.839 79.542 138.698 79.5897C138.556 79.6402 138.438 79.7047 138.344 79.7888C138.251 79.873 138.177 79.9711 138.129 80.0861C138.081 80.2011 138.058 80.3217 138.058 80.4535C138.058 80.6218 138.101 80.7621 138.183 80.8714C138.265 80.9836 138.375 81.0762 138.514 81.1547C138.653 81.2333 138.808 81.3006 138.981 81.3595C139.153 81.4184 139.334 81.4773 139.515 81.539C139.699 81.6007 139.878 81.6708 140.05 81.7465C140.223 81.825 140.378 81.9204 140.517 82.0382C140.656 82.156 140.766 82.299 140.848 82.4701C140.93 82.6412 140.972 82.8516 140.972 83.1012C140.972 83.3648 140.927 83.6117 140.837 83.8444C140.746 84.0744 140.613 84.2764 140.441 84.4475C140.265 84.6186 140.053 84.7532 139.798 84.8513C139.547 84.9495 139.258 85 138.935 85C138.542 85 138.183 84.9299 137.86 84.7868C137.535 84.6466 137.261 84.4531 137.032 84.2119L137.269 83.8248C137.292 83.794 137.32 83.7687 137.351 83.7463C137.382 83.7266 137.419 83.7154 137.459 83.7154C137.518 83.7154 137.586 83.7463 137.662 83.8108C137.739 83.8725 137.835 83.9426 137.948 84.0183C138.064 84.0941 138.203 84.1642 138.364 84.2259C138.525 84.2904 138.726 84.3213 138.961 84.3213C139.156 84.3213 139.329 84.296 139.481 84.2399C139.634 84.1866 139.764 84.1109 139.869 84.0155C139.977 83.9202 140.056 83.8024 140.112 83.6677C140.169 83.5331 140.197 83.3845 140.197 83.219C140.197 83.0367 140.155 82.888 140.073 82.7702C139.991 82.6524 139.88 82.5571 139.745 82.4785C139.609 82.4 139.453 82.3327 139.281 82.2794C139.108 82.2233 138.927 82.1672 138.746 82.1111C138.565 82.055 138.384 81.9877 138.211 81.912C138.036 81.8363 137.883 81.7381 137.747 81.6175C137.612 81.4969 137.501 81.3454 137.419 81.1659C137.337 80.9864 137.295 80.7621 137.295 80.4956C137.295 80.2824 137.337 80.0777 137.419 79.8786C137.501 79.6794 137.623 79.5027 137.781 79.3485C137.94 79.1942 138.135 79.0708 138.37 78.9782C138.604 78.8857 138.87 78.8408 139.173 78.8408C139.513 78.8408 139.821 78.8941 140.104 79.0007C140.384 79.1073 140.627 79.2615 140.837 79.4635L140.636 79.8505L140.639 79.8449Z" fill="white"/>
<path d="M148.308 81.9203C148.308 82.3718 148.237 82.7869 148.09 83.1628C147.946 83.5414 147.742 83.864 147.479 84.136C147.216 84.4081 146.899 84.6184 146.531 84.7699C146.161 84.9213 145.753 84.9943 145.306 84.9943C144.859 84.9943 144.452 84.9185 144.084 84.7699C143.717 84.6184 143.4 84.4081 143.137 84.136C142.873 83.864 142.67 83.5386 142.525 83.1628C142.381 82.7869 142.31 82.3718 142.31 81.9203C142.31 81.4687 142.381 81.0536 142.525 80.6778C142.67 80.2992 142.873 79.9738 143.137 79.7018C143.4 79.4297 143.714 79.2165 144.084 79.0651C144.452 78.9136 144.859 78.8379 145.306 78.8379C145.753 78.8379 146.161 78.9136 146.531 79.0651C146.899 79.2165 147.216 79.4297 147.479 79.7018C147.742 79.9738 147.946 80.2992 148.09 80.6778C148.234 81.0536 148.308 81.4687 148.308 81.9203ZM147.462 81.9203C147.462 81.5501 147.411 81.2191 147.309 80.9246C147.208 80.6301 147.063 80.3805 146.877 80.1785C146.69 79.9738 146.463 79.8195 146.198 79.7102C145.932 79.6008 145.635 79.5475 145.306 79.5475C144.978 79.5475 144.684 79.6036 144.421 79.7102C144.155 79.8195 143.929 79.9766 143.739 80.1785C143.55 80.3805 143.405 80.6301 143.303 80.9246C143.202 81.2191 143.151 81.5529 143.151 81.9203C143.151 82.2877 143.202 82.6215 143.303 82.916C143.405 83.2077 143.55 83.4573 143.739 83.662C143.929 83.8668 144.155 84.021 144.421 84.1304C144.687 84.237 144.984 84.2931 145.306 84.2931C145.629 84.2931 145.932 84.2398 146.198 84.1304C146.463 84.0238 146.69 83.8668 146.877 83.662C147.063 83.4601 147.208 83.2105 147.309 82.916C147.411 82.6243 147.462 82.2905 147.462 81.9203Z" fill="white"/>
<path d="M150.973 82.4167V84.9325H150.155V78.9023H151.875C152.26 78.9023 152.591 78.9416 152.871 79.0173C153.151 79.0931 153.383 79.2053 153.564 79.3511C153.745 79.4969 153.881 79.6736 153.969 79.8784C154.057 80.0831 154.102 80.3159 154.102 80.5712C154.102 80.7843 154.068 80.9834 154 81.1686C153.932 81.3537 153.833 81.5191 153.706 81.6678C153.576 81.8136 153.42 81.9399 153.236 82.0436C153.049 82.1474 152.84 82.2259 152.605 82.2792C152.707 82.3381 152.798 82.4251 152.877 82.5373L154.651 84.9325H153.921C153.771 84.9325 153.66 84.8736 153.59 84.7586L152.011 82.6046C151.963 82.5373 151.912 82.4896 151.856 82.4587C151.799 82.4307 151.714 82.4139 151.601 82.4139H150.976L150.973 82.4167ZM150.973 81.8221H151.833C152.073 81.8221 152.286 81.794 152.467 81.7351C152.648 81.679 152.8 81.5949 152.925 81.4911C153.047 81.3845 153.14 81.2611 153.202 81.1153C153.264 80.9694 153.296 80.8068 153.296 80.6301C153.296 80.2711 153.177 80.0018 152.936 79.8195C152.696 79.6372 152.342 79.5446 151.87 79.5446H150.97V81.8221H150.973Z" fill="white"/>
<path d="M157.146 84.9325H156.323V78.9023H157.146V84.9325Z" fill="white"/>
<path d="M164.416 84.9325H163.78C163.706 84.9325 163.647 84.9157 163.602 84.8792C163.556 84.8428 163.522 84.7979 163.5 84.739L162.931 83.2833H160.204L159.635 84.739C159.616 84.7895 159.582 84.8343 159.533 84.8736C159.485 84.9129 159.426 84.9325 159.355 84.9325H158.719L161.149 78.9023H161.986L164.416 84.9325ZM160.433 82.6943H162.705L161.749 80.2402C161.686 80.0887 161.624 79.9008 161.565 79.6708C161.534 79.7858 161.502 79.8924 161.474 79.9878C161.443 80.0831 161.415 80.1701 161.386 80.243L160.43 82.6915L160.433 82.6943Z" fill="white"/>
<path d="M169.07 84.9325H168.247V78.9023H169.07V84.9325Z" fill="white"/>
<path d="M174.434 82.9665C174.462 83.0422 174.493 83.1152 174.522 83.1909C174.55 83.1124 174.578 83.0366 174.609 82.9665C174.64 82.8964 174.677 82.8235 174.717 82.7506L176.776 79.0455C176.813 78.981 176.85 78.9417 176.892 78.9277C176.932 78.9137 176.988 78.9053 177.062 78.9053H177.667V84.9354H176.946V80.5068C176.946 80.4479 176.946 80.3862 176.952 80.3189C176.952 80.2515 176.957 80.1814 176.963 80.1113L174.878 83.8809C174.807 84.0071 174.708 84.0688 174.581 84.0688H174.462C174.335 84.0688 174.236 84.0071 174.165 83.8809L172.035 80.0973C172.043 80.1702 172.049 80.2431 172.055 80.3133C172.058 80.3834 172.06 80.4479 172.06 80.5068V84.9354H171.339V78.9053H171.944C172.018 78.9053 172.074 78.9137 172.114 78.9277C172.154 78.9417 172.19 78.981 172.227 79.0455L174.326 82.7562C174.366 82.8235 174.4 82.8936 174.431 82.9693L174.434 82.9665Z" fill="white"/>
<path d="M185.43 81.9203C185.43 82.3718 185.36 82.7869 185.212 83.1628C185.068 83.5414 184.864 83.864 184.601 84.136C184.338 84.4081 184.021 84.6184 183.654 84.7699C183.283 84.9213 182.876 84.9943 182.429 84.9943C181.982 84.9943 181.574 84.9185 181.207 84.7699C180.839 84.6184 180.522 84.4081 180.259 84.136C179.996 83.864 179.792 83.5386 179.648 83.1628C179.503 82.7869 179.433 82.3718 179.433 81.9203C179.433 81.4687 179.503 81.0536 179.648 80.6778C179.792 80.2992 179.996 79.9738 180.259 79.7018C180.522 79.4297 180.836 79.2165 181.207 79.0651C181.574 78.9136 181.982 78.8379 182.429 78.8379C182.876 78.8379 183.283 78.9136 183.654 79.0651C184.021 79.2165 184.338 79.4297 184.601 79.7018C184.864 79.9738 185.068 80.2992 185.212 80.6778C185.357 81.0536 185.43 81.4687 185.43 81.9203ZM184.584 81.9203C184.584 81.5501 184.533 81.2191 184.432 80.9246C184.33 80.6301 184.185 80.3805 183.999 80.1785C183.812 79.9738 183.586 79.8195 183.32 79.7102C183.054 79.6008 182.757 79.5475 182.429 79.5475C182.1 79.5475 181.806 79.6036 181.543 79.7102C181.277 79.8195 181.051 79.9766 180.861 80.1785C180.672 80.3805 180.528 80.6301 180.426 80.9246C180.324 81.2191 180.273 81.5529 180.273 81.9203C180.273 82.2877 180.324 82.6215 180.426 82.916C180.528 83.2077 180.672 83.4573 180.861 83.662C181.051 83.8668 181.277 84.021 181.543 84.1304C181.809 84.237 182.106 84.2931 182.429 84.2931C182.751 84.2931 183.054 84.2398 183.32 84.1304C183.586 84.0238 183.812 83.8668 183.999 83.662C184.185 83.4601 184.33 83.2105 184.432 82.916C184.533 82.6243 184.584 82.2905 184.584 81.9203Z" fill="white"/>
<path d="M187.19 84.9325V78.9023H189.128C189.501 78.9023 189.824 78.9388 190.092 79.0117C190.361 79.0846 190.585 79.1884 190.757 79.3231C190.933 79.4577 191.06 79.6232 191.145 79.8167C191.227 80.013 191.269 80.2318 191.269 80.4758C191.269 80.6244 191.247 80.7675 191.199 80.9049C191.15 81.0423 191.08 81.1686 190.986 81.2864C190.89 81.4042 190.771 81.5107 190.63 81.6005C190.489 81.693 190.319 81.7688 190.126 81.8277C190.571 81.9146 190.904 82.0745 191.131 82.3045C191.357 82.5345 191.47 82.8374 191.47 83.2132C191.47 83.4684 191.422 83.7012 191.329 83.9116C191.233 84.1219 191.094 84.3042 190.913 84.4557C190.732 84.6072 190.508 84.7249 190.242 84.8063C189.976 84.8876 189.677 84.9297 189.337 84.9297H187.187L187.19 84.9325ZM188.013 81.6033H189.099C189.331 81.6033 189.532 81.578 189.702 81.5276C189.872 81.4771 190.013 81.407 190.124 81.3172C190.234 81.2275 190.319 81.1181 190.373 80.9919C190.426 80.8628 190.452 80.7254 190.452 80.574C190.452 80.2206 190.344 79.9625 190.129 79.7971C189.914 79.6316 189.58 79.5474 189.128 79.5474H188.01V81.6033H188.013ZM188.013 82.1839V84.2846H189.329C189.563 84.2846 189.764 84.2594 189.934 84.2033C190.101 84.15 190.24 84.0743 190.35 83.9789C190.46 83.8835 190.539 83.7685 190.59 83.6339C190.641 83.4993 190.667 83.3534 190.667 83.1936C190.667 82.8822 190.556 82.6354 190.333 82.4559C190.109 82.2736 189.776 82.1839 189.326 82.1839H188.013Z" fill="white"/>
<path d="M194.294 84.9325H193.47V78.9023H194.294V84.9325Z" fill="white"/>
<path d="M197.383 84.2455H200.014V84.9298H196.56V78.8997H197.383V84.2427V84.2455Z" fill="white"/>
<path d="M202.534 84.9325H201.711V78.9023H202.534V84.9325Z" fill="white"/>
<path d="M209.805 84.9326H209.168C209.095 84.9326 209.035 84.9158 208.99 84.8793C208.945 84.8428 208.911 84.798 208.888 84.7391L208.32 83.2834H205.593L205.024 84.7391C205.004 84.7895 204.97 84.8344 204.922 84.8737C204.874 84.9129 204.815 84.9326 204.744 84.9326H204.107L206.537 78.9024H207.375L209.805 84.9326ZM205.822 82.6944H208.093L207.137 80.2403C207.075 80.0888 207.013 79.9009 206.953 79.6709C206.922 79.7859 206.891 79.8925 206.863 79.9878C206.832 80.0832 206.803 80.1702 206.775 80.2431L205.819 82.6916L205.822 82.6944ZM208.399 77.4355L207.151 78.3443C207.103 78.3779 207.061 78.4004 207.024 78.4116C206.987 78.4228 206.939 78.4284 206.88 78.4284H206.294L207.191 77.5758C207.219 77.5477 207.245 77.5253 207.27 77.5085C207.293 77.4916 207.318 77.4776 207.344 77.4664C207.369 77.4552 207.397 77.4468 207.429 77.444C207.46 77.4384 207.499 77.4384 207.547 77.4384H208.402L208.399 77.4355Z" fill="white"/>
<path d="M212.111 82.4167V84.9325H211.293V78.9023H213.013C213.398 78.9023 213.729 78.9416 214.009 79.0173C214.289 79.0931 214.521 79.2053 214.702 79.3511C214.883 79.4969 215.019 79.6736 215.107 79.8784C215.194 80.0831 215.24 80.3159 215.24 80.5712C215.24 80.7843 215.206 80.9834 215.138 81.1686C215.07 81.3537 214.971 81.5191 214.843 81.6678C214.713 81.8136 214.558 81.9399 214.374 82.0436C214.187 82.1474 213.978 82.2259 213.743 82.2792C213.845 82.3381 213.935 82.4251 214.015 82.5373L215.788 84.9325H215.058C214.909 84.9325 214.798 84.8736 214.727 84.7586L213.149 82.6046C213.101 82.5373 213.05 82.4896 212.993 82.4587C212.937 82.4307 212.852 82.4139 212.739 82.4139H212.113L212.111 82.4167ZM212.111 81.8221H212.971C213.211 81.8221 213.423 81.794 213.604 81.7351C213.785 81.679 213.938 81.5949 214.063 81.4911C214.184 81.3845 214.278 81.2611 214.34 81.1153C214.402 80.9694 214.433 80.8068 214.433 80.6301C214.433 80.2711 214.314 80.0018 214.074 79.8195C213.834 79.6372 213.48 79.5446 213.007 79.5446H212.108V81.8221H212.111Z" fill="white"/>
<path d="M218.286 84.9325H217.463V78.9023H218.286V84.9325Z" fill="white"/>
<path d="M225.557 84.9325H224.92C224.847 84.9325 224.787 84.9157 224.742 84.8792C224.697 84.8428 224.663 84.7979 224.64 84.739L224.072 83.2833H221.345L220.776 84.739C220.756 84.7895 220.722 84.8343 220.674 84.8736C220.626 84.9129 220.567 84.9325 220.496 84.9325H219.859L222.289 78.9023H223.127L225.557 84.9325ZM221.574 82.6943H223.845L222.889 80.2402C222.827 80.0887 222.765 79.9008 222.705 79.6708C222.674 79.7858 222.643 79.8924 222.615 79.9878C222.584 80.0831 222.555 80.1701 222.527 80.243L221.571 82.6915L221.574 82.6943Z" fill="white"/>
<path d="M82.1629 64.7808C80.5589 63.8413 79.3 62.5679 78.3834 60.9664C77.4668 59.3649 77.0085 57.6176 77.0085 55.7216C77.0085 53.8256 77.4696 52.0558 78.3947 50.4487C79.3169 48.8416 80.5815 47.5654 82.1855 46.6259C83.7896 45.6863 85.5719 45.2151 87.5324 45.2151C88.995 45.2151 90.3472 45.4591 91.592 45.9499C92.8368 46.4408 93.9316 47.1167 94.8821 47.9805L92.4209 51.4696C91.7278 50.8722 91.0092 50.4207 90.2652 50.1149C89.5212 49.8092 88.6951 49.6578 87.7842 49.6578C86.7204 49.6578 85.7359 49.9214 84.8307 50.4487C83.9254 50.976 83.2068 51.7052 82.675 52.6336C82.1431 53.5619 81.8772 54.5913 81.8772 55.7244C81.8772 56.8575 82.1459 57.8616 82.6863 58.7759C83.2238 59.6903 83.9452 60.4139 84.8505 60.9412C85.7558 61.4685 86.7318 61.7321 87.7842 61.7321C88.6951 61.7321 89.524 61.5807 90.2765 61.2749C91.0262 60.9692 91.7476 60.5317 92.4407 59.9595L94.885 63.4318C93.9486 64.2956 92.8509 64.9744 91.5948 65.4624C90.3387 65.9504 88.9921 66.1972 87.555 66.1972C85.5662 66.1972 83.7726 65.726 82.1686 64.7865L82.1629 64.7808Z" fill="white"/>
<path d="M99.1059 64.7893C97.482 63.8553 96.2005 62.5904 95.2584 60.9945C94.3163 59.3986 93.8439 57.6484 93.8439 55.7412C93.8439 53.834 94.3163 52.053 95.2584 50.4403C96.2005 48.8248 97.4877 47.5514 99.1143 46.6175C100.744 45.6835 102.537 45.2151 104.501 45.2151C106.464 45.2151 108.258 45.6863 109.887 46.6259C111.517 47.5683 112.801 48.8416 113.743 50.4487C114.685 52.0586 115.158 53.8228 115.158 55.7412C115.158 57.6597 114.685 59.4042 113.743 61.0057C112.801 62.6072 111.511 63.8721 109.876 64.8005C108.241 65.7288 106.436 66.1916 104.461 66.1916C102.487 66.1916 100.727 65.7232 99.103 64.7893H99.1059ZM107.417 60.8402C108.294 60.3241 108.99 59.6173 109.505 58.7142C110.017 57.8111 110.275 56.8126 110.275 55.7188C110.275 54.6249 110.017 53.6096 109.505 52.7065C108.993 51.8034 108.294 51.091 107.409 50.5693C106.524 50.0476 105.556 49.7868 104.504 49.7868C103.451 49.7868 102.467 50.0476 101.59 50.5693C100.71 51.091 100.014 51.8034 99.5019 52.7065C98.9899 53.6096 98.7324 54.6137 98.7324 55.7188C98.7324 56.8238 98.9899 57.8251 99.5019 58.7226C100.014 59.6202 100.71 60.3241 101.59 60.8402C102.467 61.3563 103.44 61.6115 104.504 61.6115C105.567 61.6115 106.541 61.3535 107.417 60.8402Z" fill="white"/>
<path d="M131.903 46.2332C133.102 46.9147 134.027 47.8992 134.683 49.1894C135.337 50.4796 135.665 52.0222 135.665 53.8144V65.6391H130.74V54.6726C130.74 53.0964 130.352 51.8763 129.577 51.0096C128.802 50.1458 127.721 49.7139 126.335 49.7139C125.424 49.7139 124.587 49.9298 123.826 50.3618C123.062 50.7937 122.459 51.3799 122.018 52.1175C121.577 52.8552 121.353 53.6685 121.353 54.5576V65.6391H116.448V45.6526H120.66L120.988 48.247C121.732 47.3439 122.72 46.6146 123.95 46.0537C125.181 45.4956 126.426 45.2151 127.682 45.2151C129.297 45.2151 130.706 45.5545 131.905 46.236L131.903 46.2332Z" fill="white"/>
<path d="M153.618 45.6526H157.83V72.4097H152.925V63.5973C152.167 64.3854 151.293 65.0024 150.3 65.4484C149.307 65.8943 148.206 66.1159 147.001 66.1159C145.179 66.1159 143.49 65.6475 141.931 64.7135C140.373 63.7796 139.139 62.5146 138.228 60.9187C137.317 59.3229 136.862 57.5727 136.862 55.6655C136.862 53.7583 137.32 52.0081 138.237 50.4122C139.153 48.8164 140.387 47.5514 141.94 46.6175C143.49 45.6835 145.179 45.2151 146.998 45.2151C148.305 45.2151 149.485 45.4703 150.537 45.978C151.59 46.4856 152.501 47.1924 153.27 48.0955L153.615 45.6554L153.618 45.6526ZM150.348 60.7477C151.233 60.2456 151.932 59.5528 152.444 58.6694C152.956 57.7859 153.213 56.7902 153.213 55.6851C153.213 54.5801 152.956 53.5788 152.444 52.6813C151.932 51.7838 151.233 51.0826 150.348 50.5749C149.462 50.0673 148.489 49.812 147.423 49.812C146.356 49.812 145.408 50.0673 144.537 50.5749C143.666 51.0826 142.978 51.7866 142.477 52.6813C141.977 53.5788 141.728 54.5801 141.728 55.6851C141.728 56.7902 141.977 57.7887 142.477 58.6806C142.978 59.5697 143.66 60.2624 144.526 60.7589C145.391 61.2553 146.356 61.5021 147.42 61.5021C148.483 61.5021 149.459 61.2525 150.345 60.7477H150.348Z" fill="white"/>
<path d="M173.65 45.6329H178.556V65.6194H174.343L174.015 63.025C173.271 63.9282 172.284 64.6602 171.053 65.2183C169.823 65.7793 168.578 66.0569 167.322 66.0569C165.706 66.0569 164.298 65.7176 163.098 65.036C161.899 64.3573 160.973 63.37 160.317 62.0798C159.664 60.7897 159.335 59.2471 159.335 57.4549V45.6301H164.261V56.5966C164.261 58.1729 164.648 59.3929 165.423 60.2596C166.199 61.1234 167.279 61.5554 168.666 61.5554C169.576 61.5554 170.414 61.3394 171.175 60.9075C171.939 60.4755 172.541 59.8893 172.983 59.1517C173.424 58.4141 173.647 57.6007 173.647 56.7116V45.6301L173.65 45.6329Z" fill="white"/>
<path d="M180.893 42.6684C180.423 42.3963 180.058 42.0373 179.795 41.5913C179.532 41.1454 179.402 40.677 179.402 40.1806C179.402 39.6841 179.532 39.2101 179.795 38.7586C180.058 38.307 180.423 37.9424 180.893 37.6619C181.359 37.3814 181.888 37.2412 182.48 37.2412C183.071 37.2412 183.597 37.3814 184.067 37.6619C184.533 37.9424 184.901 38.307 185.164 38.7586C185.427 39.2101 185.558 39.6841 185.558 40.1806C185.558 40.677 185.425 41.1482 185.164 41.5913C184.901 42.0373 184.536 42.3963 184.067 42.6684C183.597 42.9432 183.068 43.0778 182.48 43.0778C181.891 43.0778 181.359 42.9404 180.893 42.6684ZM184.904 65.6391H179.999V45.6329H184.904V65.6391Z" fill="white"/>
<path d="M211.067 65.6389H206.141V51.2367H202.407V46.7547H206.122V41.967H211.067V46.7547H215.228V51.2367H211.067V65.6389Z" fill="white"/>
<path d="M231.95 46.2331C233.156 46.9147 234.086 47.8991 234.74 49.1893C235.393 50.4795 235.722 52.0221 235.722 53.8143V65.639H230.796V54.6725C230.796 53.0963 230.409 51.8762 229.634 51.0096C228.858 50.1457 227.772 49.7138 226.372 49.7138C225.461 49.7138 224.623 49.9297 223.862 50.3617C223.099 50.7936 222.499 51.3798 222.063 52.1174C221.627 52.8551 221.41 53.6684 221.41 54.5575V65.639H216.524V37.0701H221.41V47.8066C222.19 47.0325 223.152 46.4042 224.295 45.9274C225.435 45.4506 226.584 45.2122 227.738 45.2122C229.342 45.2122 230.745 45.5516 231.95 46.2331Z" fill="white"/>
<path d="M253.728 45.6525H258V65.639H253.711L253.366 63.2942C252.597 64.1721 251.691 64.8621 250.653 65.3641C249.615 65.8662 248.452 66.1186 247.171 66.1186C245.349 66.1186 243.66 65.6502 242.101 64.7162C240.542 63.7823 239.309 62.5173 238.398 60.9214C237.487 59.3255 237.031 57.5754 237.031 55.6682C237.031 53.761 237.49 52.0108 238.406 50.4149C239.323 48.819 240.556 47.5541 242.109 46.6201C243.66 45.6862 245.349 45.2178 247.168 45.2178C248.475 45.2178 249.652 45.473 250.698 45.9807C251.742 46.4883 252.65 47.1895 253.42 48.0786L253.728 45.6553V45.6525ZM250.514 60.7475C251.4 60.2455 252.099 59.5527 252.611 58.6692C253.123 57.7857 253.38 56.7901 253.38 55.685C253.38 54.5799 253.123 53.5787 252.611 52.6811C252.099 51.7836 251.4 51.0825 250.514 50.5748C249.629 50.0671 248.656 49.8119 247.589 49.8119C246.523 49.8119 245.575 50.0671 244.704 50.5748C243.832 51.0825 243.145 51.7864 242.644 52.6811C242.143 53.5787 241.894 54.5799 241.894 55.685C241.894 56.7901 242.143 57.7886 242.644 58.6805C243.145 59.5696 243.827 60.2623 244.692 60.7588C245.558 61.2552 246.523 61.502 247.586 61.502C248.65 61.502 249.626 61.2524 250.512 60.7475H250.514Z" fill="white"/>
<path d="M199.253 54.9867C198.24 54.4847 196.995 54.0499 195.521 53.6797C194.443 53.3993 193.612 53.144 193.02 52.9084C192.429 52.6728 192.011 52.4232 191.762 52.154C191.513 51.8875 191.385 51.5706 191.385 51.2003C191.385 50.6674 191.631 50.2467 192.127 49.941C192.622 49.6353 193.349 49.4839 194.31 49.4839C195.196 49.4839 196.141 49.6493 197.148 49.9803C198.11 50.2972 198.927 50.6703 199.615 51.1022C199.615 51.1022 200.192 48.491 200.563 46.7549C199.892 46.4015 199.176 46.0986 198.418 45.8517C197.066 45.4142 195.759 45.1926 194.503 45.1926C192.837 45.1926 191.394 45.4563 190.174 45.9836C188.955 46.5108 188.027 47.2232 187.385 48.1208C186.743 49.0183 186.423 50.0196 186.423 51.1246C186.423 52.7009 187.023 53.9939 188.222 55.0064C189.422 56.0161 191.02 56.7705 193.023 57.267C194.163 57.5474 195.055 57.8139 195.697 58.0691C196.339 58.3243 196.806 58.5964 197.1 58.8881C197.394 59.1798 197.541 59.536 197.541 59.9567C197.541 60.5793 197.255 61.0618 196.684 61.4067C196.113 61.7489 195.34 61.9228 194.367 61.9228C193.238 61.9228 192.081 61.7097 190.896 61.2833C189.736 60.8682 188.732 60.3606 187.872 59.7688L186.471 63.8497C187.447 64.4695 188.503 64.9772 189.634 65.3754C191.159 65.9083 192.789 66.1776 194.52 66.1776C196.084 66.1776 197.476 65.9083 198.695 65.367C199.915 64.8257 200.857 64.0825 201.524 63.1345C202.192 62.1865 202.526 61.1235 202.526 59.9399C202.526 58.7563 202.235 57.7634 201.652 56.9556C201.069 56.1479 200.271 55.4944 199.256 54.9923L199.253 54.9867Z" fill="white"/>
</g>
<defs>
<clipPath id="clip0_10_243">
<rect width="258" height="85" fill="white"/>
</clipPath>
</defs>
</svg>
