<?xml version="1.0" encoding="UTF-8"?>
<svg id="Camada_2" data-name="Camada 2" xmlns="http://www.w3.org/2000/svg" viewBox="0 0 465.28 358.63">
  <defs>
    <style>
      .cls-1 {
        fill: none;
      }

      .cls-1, .cls-2, .cls-3, .cls-4, .cls-5 {
        stroke-width: 0px;
      }

      .cls-2 {
        fill: #ffb000;
      }

      .cls-3 {
        fill: #838891;
      }

      .cls-4 {
        fill: #ff8500;
      }

      .cls-5 {
        fill: #dbdbdb;
      }
    </style>
  </defs>
  <g id="Camada_1-2" data-name="Camada 1">
    <g>
      <g>
        <path class="cls-1" d="m224.97,105.83c-.22-.1-.47-.06-.65.1l-23.48,20.48c-.13.12-.21.28-.21.46v66.86c0,.34.27.61.61.61h23.48c.34,0,.61-.27.61-.61v-87.34c0-.24-.14-.45-.36-.55Z"/>
        <path class="cls-2" d="m224.71,194.33h-23.48c-.34,0-.61-.27-.61-.61v-66.86c0-.18.08-.34.21-.46l23.48-20.48c.18-.16.43-.19.65-.1.22.1.36.31.36.55v-20.49c0,.17-.07.34-.21.46l-38.22,33.82s-.03.04-.03.07v87.6c0,.14.12.26.26.26h38.2v-14.37c0,.34-.27.61-.61.61Z"/>
        <path class="cls-2" d="m311.8,120.15l-59.47-57.77s-.09-.04-.13,0h0s-12.11,10.71-12.11,10.71c-.18.16-.43.2-.65.1-.22-.1-.36-.31-.36-.56v20.68c0-.18.08-.34.21-.46l12.57-10.96c.11-.1.26-.15.4-.15.16,0,.31.06.43.17l45.19,44.49c.12.11.18.27.18.43v80.99c0,.14.12.26.26.26h13.25c.14,0,.26-.12.26-.26v-87.61s-.01-.05-.03-.07Z"/>
        <path class="cls-4" d="m238.83,0h-85.12c-.14,0-.26.12-.26.26v207.58c0,.14.12.26.26.26h13.25c.14,0,.26-.12.26-.26V14.53c0-.43.35-.77.77-.77h56.56c.43,0,.77.35.77.77v193.56h13.5c.14,0,.26-.12.26-.26V.26c0-.14-.12-.26-.26-.26Z"/>
      </g>
      <g>
        <g>
          <path class="cls-5" d="m98.05,358.45h-1.64c-.19,0-.34-.05-.46-.14s-.2-.21-.26-.36l-1.46-3.77h-7.01l-1.46,3.77c-.05.13-.14.25-.26.35-.12.1-.28.15-.46.15h-1.64l6.25-15.63h2.15l6.25,15.63Zm-10.24-5.8h5.84l-2.45-6.36c-.16-.39-.32-.88-.47-1.47-.08.3-.16.57-.23.82-.08.25-.15.47-.22.66l-2.45,6.35Z"/>
          <path class="cls-5" d="m109.67,345.26c-.07.11-.13.19-.21.25-.07.05-.17.08-.28.08-.12,0-.27-.06-.43-.19s-.37-.26-.62-.41c-.25-.15-.55-.29-.9-.41-.35-.12-.78-.19-1.28-.19-.47,0-.89.06-1.25.19-.36.13-.67.3-.91.52s-.43.47-.55.77-.19.61-.19.95c0,.44.11.8.32,1.09.21.29.5.53.85.74s.75.38,1.2.53.91.3,1.37.46c.47.16.93.34,1.37.54.45.2.85.45,1.2.76.35.31.64.68.85,1.12.21.44.32.99.32,1.64,0,.68-.12,1.33-.35,1.93-.23.6-.57,1.12-1.02,1.57-.45.44-1,.79-1.65,1.05-.65.25-1.39.38-2.22.38-1.01,0-1.93-.18-2.77-.55-.83-.37-1.54-.86-2.13-1.49l.61-1c.06-.08.13-.15.21-.2.08-.05.18-.08.28-.08.15,0,.33.08.52.25.2.16.44.34.74.54.29.2.65.38,1.07.54.42.16.93.25,1.53.25.5,0,.95-.07,1.34-.21.39-.14.73-.33,1-.58.27-.25.48-.55.63-.9.14-.35.22-.74.22-1.17,0-.47-.11-.86-.32-1.16s-.5-.55-.85-.76c-.35-.2-.75-.38-1.19-.52-.45-.14-.91-.29-1.37-.44-.47-.15-.93-.32-1.37-.52-.45-.2-.85-.45-1.19-.76-.35-.31-.63-.7-.85-1.17-.21-.47-.32-1.05-.32-1.74,0-.55.11-1.09.32-1.6s.53-.98.93-1.37c.41-.4.91-.72,1.51-.96.6-.24,1.29-.36,2.07-.36.87,0,1.67.14,2.39.41.72.28,1.35.68,1.89,1.2l-.51,1Z"/>
          <path class="cls-5" d="m122.87,345.26c-.07.11-.13.19-.21.25-.07.05-.17.08-.28.08-.12,0-.27-.06-.43-.19s-.37-.26-.62-.41c-.25-.15-.55-.29-.9-.41-.35-.12-.78-.19-1.28-.19-.47,0-.89.06-1.25.19-.36.13-.67.3-.91.52s-.43.47-.55.77-.19.61-.19.95c0,.44.11.8.32,1.09.21.29.5.53.85.74s.75.38,1.2.53.91.3,1.37.46c.47.16.93.34,1.37.54.45.2.85.45,1.2.76.35.31.64.68.85,1.12.21.44.32.99.32,1.64,0,.68-.12,1.33-.35,1.93-.23.6-.57,1.12-1.02,1.57-.45.44-1,.79-1.65,1.05-.65.25-1.39.38-2.22.38-1.01,0-1.93-.18-2.77-.55-.83-.37-1.54-.86-2.13-1.49l.61-1c.06-.08.13-.15.21-.2.08-.05.18-.08.28-.08.15,0,.33.08.52.25.2.16.44.34.74.54.29.2.65.38,1.07.54.42.16.93.25,1.53.25.5,0,.95-.07,1.34-.21.39-.14.73-.33,1-.58.27-.25.48-.55.63-.9.14-.35.22-.74.22-1.17,0-.47-.11-.86-.32-1.16s-.5-.55-.85-.76c-.35-.2-.75-.38-1.19-.52-.45-.14-.91-.29-1.37-.44-.47-.15-.93-.32-1.37-.52-.45-.2-.85-.45-1.19-.76-.35-.31-.63-.7-.85-1.17-.21-.47-.32-1.05-.32-1.74,0-.55.11-1.09.32-1.6s.53-.98.93-1.37c.41-.4.91-.72,1.51-.96.6-.24,1.29-.36,2.07-.36.87,0,1.67.14,2.39.41.72.28,1.35.68,1.89,1.2l-.51,1Z"/>
          <path class="cls-5" d="m137.7,342.82v1.72h-7.51v5.19h6.08v1.66h-6.08v5.33h7.51v1.72h-9.63v-15.63h9.63Z"/>
          <path class="cls-5" d="m150.38,345.26c-.07.11-.13.19-.21.25-.07.05-.17.08-.28.08-.12,0-.27-.06-.43-.19s-.37-.26-.62-.41c-.25-.15-.55-.29-.9-.41-.35-.12-.78-.19-1.28-.19-.47,0-.89.06-1.25.19-.36.13-.67.3-.91.52s-.43.47-.55.77-.19.61-.19.95c0,.44.11.8.32,1.09.21.29.5.53.85.74s.75.38,1.2.53.91.3,1.37.46c.47.16.93.34,1.37.54.45.2.85.45,1.2.76.35.31.64.68.85,1.12.21.44.32.99.32,1.64,0,.68-.12,1.33-.35,1.93-.23.6-.57,1.12-1.02,1.57-.45.44-1,.79-1.65,1.05-.65.25-1.39.38-2.22.38-1.01,0-1.93-.18-2.77-.55-.83-.37-1.54-.86-2.13-1.49l.61-1c.06-.08.13-.15.21-.2.08-.05.18-.08.28-.08.15,0,.33.08.52.25.2.16.44.34.74.54.29.2.65.38,1.07.54.42.16.93.25,1.53.25.5,0,.95-.07,1.34-.21.39-.14.73-.33,1-.58.27-.25.48-.55.63-.9.14-.35.22-.74.22-1.17,0-.47-.11-.86-.32-1.16s-.5-.55-.85-.76c-.35-.2-.75-.38-1.19-.52-.45-.14-.91-.29-1.37-.44-.47-.15-.93-.32-1.37-.52-.45-.2-.85-.45-1.19-.76-.35-.31-.63-.7-.85-1.17-.21-.47-.32-1.05-.32-1.74,0-.55.11-1.09.32-1.6s.53-.98.93-1.37c.41-.4.91-.72,1.51-.96.6-.24,1.29-.36,2.07-.36.87,0,1.67.14,2.39.41.72.28,1.35.68,1.89,1.2l-.51,1Z"/>
          <path class="cls-5" d="m163.58,345.26c-.07.11-.13.19-.21.25-.07.05-.17.08-.28.08-.12,0-.27-.06-.43-.19s-.37-.26-.62-.41c-.25-.15-.55-.29-.9-.41-.35-.12-.78-.19-1.28-.19-.47,0-.89.06-1.25.19-.36.13-.67.3-.91.52s-.43.47-.55.77-.19.61-.19.95c0,.44.11.8.32,1.09.21.29.5.53.85.74s.75.38,1.2.53.91.3,1.37.46c.47.16.93.34,1.37.54.45.2.85.45,1.2.76.35.31.64.68.85,1.12.21.44.32.99.32,1.64,0,.68-.12,1.33-.35,1.93-.23.6-.57,1.12-1.02,1.57-.45.44-1,.79-1.65,1.05-.65.25-1.39.38-2.22.38-1.01,0-1.93-.18-2.77-.55-.83-.37-1.54-.86-2.13-1.49l.61-1c.06-.08.13-.15.21-.2.08-.05.18-.08.28-.08.15,0,.33.08.52.25.2.16.44.34.74.54.29.2.65.38,1.07.54.42.16.93.25,1.53.25.5,0,.95-.07,1.34-.21.39-.14.73-.33,1-.58.27-.25.48-.55.63-.9.14-.35.22-.74.22-1.17,0-.47-.11-.86-.32-1.16s-.5-.55-.85-.76c-.35-.2-.75-.38-1.19-.52-.45-.14-.91-.29-1.37-.44-.47-.15-.93-.32-1.37-.52-.45-.2-.85-.45-1.19-.76-.35-.31-.63-.7-.85-1.17-.21-.47-.32-1.05-.32-1.74,0-.55.11-1.09.32-1.6s.53-.98.93-1.37c.41-.4.91-.72,1.51-.96.6-.24,1.29-.36,2.07-.36.87,0,1.67.14,2.39.41.72.28,1.35.68,1.89,1.2l-.51,1Z"/>
          <path class="cls-5" d="m183.3,350.64c0,1.17-.19,2.25-.56,3.22-.37.98-.89,1.82-1.57,2.53-.68.71-1.49,1.25-2.44,1.64-.95.39-2,.58-3.15.58s-2.2-.19-3.14-.58c-.95-.39-1.76-.94-2.43-1.64-.68-.71-1.2-1.55-1.57-2.53-.37-.98-.56-2.05-.56-3.22s.19-2.24.56-3.22c.37-.98.89-1.82,1.57-2.53.68-.71,1.49-1.26,2.43-1.65.95-.39,1.99-.59,3.14-.59s2.2.2,3.15.59c.95.39,1.76.94,2.44,1.65.68.71,1.2,1.55,1.57,2.53.37.98.56,2.05.56,3.22Zm-2.17,0c0-.96-.13-1.82-.39-2.59-.26-.76-.63-1.41-1.11-1.94-.48-.53-1.06-.93-1.75-1.22-.68-.28-1.45-.43-2.29-.43s-1.6.14-2.28.43c-.68.28-1.27.69-1.75,1.22-.48.53-.86,1.17-1.12,1.94-.26.76-.39,1.63-.39,2.59s.13,1.82.39,2.58c.26.76.63,1.4,1.12,1.93s1.07.93,1.75,1.21c.68.28,1.44.42,2.28.42s1.61-.14,2.29-.42c.68-.28,1.27-.68,1.75-1.21.48-.53.85-1.17,1.11-1.93.26-.76.39-1.62.39-2.58Z"/>
          <path class="cls-5" d="m190.15,351.93v6.52h-2.11v-15.63h4.42c.99,0,1.84.1,2.56.3s1.31.49,1.78.87c.47.38.82.83,1.04,1.37.23.53.34,1.13.34,1.79,0,.55-.09,1.07-.26,1.55-.17.48-.43.91-.76,1.29-.33.38-.73.71-1.21.98-.48.27-1.02.47-1.62.61.26.15.49.37.7.67l4.56,6.21h-1.88c-.39,0-.67-.15-.85-.45l-4.06-5.59c-.12-.17-.26-.3-.4-.38-.15-.08-.36-.11-.65-.11h-1.6Zm0-1.54h2.21c.62,0,1.16-.07,1.63-.22.47-.15.86-.36,1.18-.63.32-.27.55-.6.71-.98.16-.38.24-.8.24-1.25,0-.93-.31-1.63-.92-2.11-.62-.47-1.53-.71-2.74-.71h-2.31v5.9Z"/>
          <path class="cls-5" d="m206.02,358.45h-2.12v-15.63h2.12v15.63Z"/>
          <path class="cls-5" d="m224.71,358.45h-1.64c-.19,0-.34-.05-.46-.14s-.2-.21-.26-.36l-1.46-3.77h-7.01l-1.46,3.77c-.05.13-.14.25-.26.35-.12.1-.28.15-.46.15h-1.64l6.25-15.63h2.15l6.25,15.63Zm-10.24-5.8h5.84l-2.45-6.36c-.16-.39-.32-.88-.47-1.47-.08.3-.16.57-.23.82-.08.25-.15.47-.22.66l-2.45,6.35Z"/>
          <path class="cls-5" d="m236.67,358.45h-2.12v-15.63h2.12v15.63Z"/>
          <path class="cls-5" d="m250.46,353.35c.08.19.15.39.22.58.07-.2.15-.4.23-.58.08-.19.17-.37.27-.56l5.29-9.61c.09-.17.19-.27.29-.31.1-.04.25-.05.44-.05h1.56v15.63h-1.85v-11.49c0-.15,0-.32.01-.49,0-.17.02-.35.03-.53l-5.36,9.77c-.18.33-.44.49-.76.49h-.31c-.33,0-.58-.16-.76-.49l-5.48-9.81c.02.19.04.37.05.56.01.18.02.35.02.5v11.49h-1.85v-15.63h1.56c.19,0,.33.02.44.05.1.04.2.14.29.31l5.4,9.62c.1.17.19.36.27.55Z"/>
          <path class="cls-5" d="m278.73,350.64c0,1.17-.19,2.25-.56,3.22-.37.98-.89,1.82-1.57,2.53-.68.71-1.49,1.25-2.44,1.64-.95.39-2,.58-3.15.58s-2.2-.19-3.14-.58c-.95-.39-1.76-.94-2.43-1.64-.68-.71-1.2-1.55-1.57-2.53-.37-.98-.56-2.05-.56-3.22s.19-2.24.56-3.22c.37-.98.89-1.82,1.57-2.53.68-.71,1.49-1.26,2.43-1.65.95-.39,1.99-.59,3.14-.59s2.2.2,3.15.59c.95.39,1.76.94,2.44,1.65.68.71,1.2,1.55,1.57,2.53.37.98.56,2.05.56,3.22Zm-2.17,0c0-.96-.13-1.82-.39-2.59-.26-.76-.63-1.41-1.11-1.94-.48-.53-1.06-.93-1.75-1.22-.68-.28-1.45-.43-2.29-.43s-1.6.14-2.28.43c-.68.28-1.27.69-1.75,1.22-.48.53-.86,1.17-1.12,1.94-.26.76-.39,1.63-.39,2.59s.13,1.82.39,2.58c.26.76.63,1.4,1.12,1.93s1.07.93,1.75,1.21c.68.28,1.44.42,2.28.42s1.61-.14,2.29-.42c.68-.28,1.27-.68,1.75-1.21.48-.53.85-1.17,1.11-1.93.26-.76.39-1.62.39-2.58Z"/>
          <path class="cls-5" d="m283.25,358.45v-15.63h4.99c.96,0,1.79.1,2.48.28.69.19,1.26.46,1.71.81.45.35.78.78.99,1.28.21.51.32,1.07.32,1.71,0,.39-.06.76-.18,1.11-.12.36-.3.69-.55.99-.24.31-.55.58-.92.82-.37.24-.8.44-1.29.59,1.14.23,2,.64,2.59,1.23.58.6.87,1.38.87,2.36,0,.66-.12,1.27-.37,1.81-.24.55-.6,1.01-1.07,1.41-.47.39-1.04.7-1.72.91-.68.21-1.46.32-2.33.32h-5.53Zm2.12-8.63h2.79c.6,0,1.11-.07,1.55-.2.44-.13.8-.31,1.09-.55.29-.23.5-.51.64-.85.14-.33.21-.69.21-1.09,0-.92-.28-1.59-.83-2.02s-1.41-.64-2.57-.64h-2.87v5.33Zm0,1.51v5.44h3.38c.6,0,1.12-.07,1.55-.21.43-.14.79-.33,1.07-.58s.49-.55.62-.89c.13-.35.2-.73.2-1.14,0-.81-.29-1.45-.86-1.91-.57-.47-1.43-.7-2.59-.7h-3.37Z"/>
          <path class="cls-5" d="m301.51,358.45h-2.12v-15.63h2.12v15.63Z"/>
          <path class="cls-5" d="m309.46,356.68h6.76v1.78h-8.88v-15.63h2.12v13.85Z"/>
          <path class="cls-5" d="m322.7,358.45h-2.12v-15.63h2.12v15.63Z"/>
          <path class="cls-5" d="m341.39,358.45h-1.64c-.19,0-.34-.05-.46-.14s-.2-.21-.26-.36l-1.46-3.77h-7.01l-1.46,3.77c-.05.13-.14.25-.26.35-.12.1-.28.15-.46.15h-1.64l6.25-15.63h2.15l6.25,15.63Zm-10.24-5.8h5.84l-2.45-6.36c-.16-.39-.32-.88-.47-1.47-.08.3-.16.57-.23.82-.08.25-.15.47-.22.66l-2.45,6.35Zm6.62-13.64l-3.21,2.36c-.12.09-.23.15-.33.17s-.22.04-.37.04h-1.51l2.3-2.21c.07-.07.14-.13.2-.17.06-.04.13-.08.19-.11s.14-.05.22-.06c.08-.01.18-.02.31-.02h2.19Z"/>
          <path class="cls-5" d="m347.32,351.93v6.52h-2.11v-15.63h4.42c.99,0,1.84.1,2.56.3s1.31.49,1.78.87c.47.38.82.83,1.04,1.37.23.53.34,1.13.34,1.79,0,.55-.09,1.07-.26,1.55-.17.48-.43.91-.76,1.29-.33.38-.73.71-1.21.98-.48.27-1.02.47-1.62.61.26.15.49.37.7.67l4.56,6.21h-1.88c-.39,0-.67-.15-.85-.45l-4.06-5.59c-.12-.17-.26-.3-.4-.38-.15-.08-.36-.11-.65-.11h-1.6Zm0-1.54h2.21c.62,0,1.16-.07,1.63-.22.47-.15.86-.36,1.18-.63.32-.27.55-.6.71-.98.16-.38.24-.8.24-1.25,0-.93-.31-1.63-.92-2.11-.62-.47-1.53-.71-2.74-.71h-2.31v5.9Z"/>
          <path class="cls-5" d="m363.19,358.45h-2.12v-15.63h2.12v15.63Z"/>
          <path class="cls-5" d="m381.88,358.45h-1.64c-.19,0-.34-.05-.46-.14s-.2-.21-.26-.36l-1.46-3.77h-7.01l-1.46,3.77c-.05.13-.14.25-.26.35-.12.1-.28.15-.46.15h-1.64l6.25-15.63h2.15l6.25,15.63Zm-10.24-5.8h5.84l-2.45-6.36c-.16-.39-.32-.88-.47-1.47-.08.3-.16.57-.23.82-.08.25-.15.47-.22.66l-2.45,6.35Z"/>
        </g>
        <g>
          <path class="cls-3" d="m13.25,306.2c-4.12-2.44-7.36-5.74-9.72-9.89-2.36-4.15-3.54-8.69-3.54-13.6s1.19-9.5,3.56-13.67c2.37-4.17,5.62-7.48,9.74-9.92,4.12-2.44,8.7-3.66,13.75-3.66,3.76,0,7.24.64,10.43,1.9,3.2,1.27,6.02,3.03,8.46,5.27l-6.33,9.05c-1.78-1.55-3.63-2.72-5.54-3.51s-4.04-1.19-6.38-1.19c-2.74,0-5.27.68-7.59,2.05-2.32,1.37-4.17,3.26-5.54,5.66-1.37,2.41-2.05,5.08-2.05,8.01s.69,5.54,2.08,7.91c1.38,2.37,3.24,4.25,5.56,5.61,2.32,1.37,4.84,2.05,7.54,2.05,2.34,0,4.48-.4,6.4-1.19,1.93-.79,3.78-1.93,5.56-3.41l6.28,9c-2.41,2.24-5.23,4-8.46,5.27-3.23,1.27-6.69,1.9-10.39,1.9-5.11,0-9.73-1.22-13.85-3.66Z"/>
          <path class="cls-3" d="m56.81,306.23c-4.17-2.42-7.47-5.7-9.89-9.84-2.42-4.14-3.63-8.68-3.63-13.62s1.21-9.56,3.63-13.75c2.42-4.19,5.73-7.49,9.92-9.92,4.19-2.42,8.8-3.63,13.85-3.63s9.66,1.22,13.85,3.66c4.19,2.44,7.49,5.74,9.92,9.92,2.42,4.17,3.63,8.75,3.63,13.72s-1.21,9.5-3.63,13.65-5.74,7.43-9.94,9.84-8.84,3.61-13.92,3.61-9.6-1.21-13.77-3.64Zm21.36-10.24c2.26-1.34,4.05-3.17,5.37-5.51,1.32-2.34,1.98-4.93,1.98-7.76s-.66-5.47-1.98-7.81c-1.32-2.34-3.12-4.19-5.39-5.54-2.27-1.35-4.76-2.03-7.47-2.03s-5.23.68-7.49,2.03c-2.26,1.35-4.05,3.2-5.37,5.54-1.32,2.34-1.98,4.95-1.98,7.81s.66,5.46,1.98,7.79c1.32,2.32,3.11,4.15,5.37,5.49,2.26,1.34,4.75,2,7.49,2s5.23-.67,7.49-2Z"/>
          <path class="cls-3" d="m141.13,258.11c3.08,1.76,5.46,4.32,7.15,7.67,1.68,3.35,2.52,7.34,2.52,11.99v30.66h-12.66v-28.44c0-4.09-1-7.25-2.99-9.49-1.99-2.24-4.77-3.36-8.33-3.36-2.34,0-4.49.56-6.45,1.68-1.96,1.12-3.51,2.64-4.65,4.55-1.14,1.91-1.71,4.02-1.71,6.33v28.73h-12.61v-51.83h10.83l.84,6.73c1.91-2.34,4.45-4.24,7.62-5.69,3.16-1.45,6.36-2.18,9.59-2.18,4.15,0,7.77.88,10.86,2.65Z"/>
          <path class="cls-3" d="m196.95,256.6h10.83v69.38h-12.61v-22.85c-1.95,2.04-4.2,3.64-6.75,4.8-2.56,1.15-5.38,1.73-8.48,1.73-4.68,0-9.03-1.21-13.03-3.63s-7.18-5.7-9.52-9.84c-2.34-4.14-3.51-8.68-3.51-13.62s1.18-9.49,3.54-13.62c2.36-4.14,5.53-7.42,9.52-9.84,3.99-2.42,8.32-3.63,13.01-3.63,3.36,0,6.4.66,9.1,1.98,2.7,1.32,5.04,3.15,7.02,5.49l.89-6.33Zm-8.41,39.14c2.27-1.3,4.07-3.1,5.39-5.39,1.32-2.29,1.98-4.87,1.98-7.74s-.66-5.46-1.98-7.79c-1.32-2.32-3.12-4.15-5.39-5.46-2.27-1.32-4.78-1.98-7.52-1.98s-5.18.66-7.42,1.98c-2.24,1.32-4.01,3.14-5.29,5.46-1.29,2.32-1.93,4.92-1.93,7.79s.64,5.46,1.93,7.76c1.29,2.31,3.04,4.1,5.27,5.39,2.23,1.29,4.71,1.93,7.44,1.93s5.24-.65,7.52-1.95Z"/>
          <path class="cls-3" d="m248.44,256.55h12.61v51.83h-10.83l-.84-6.73c-1.91,2.34-4.45,4.24-7.62,5.69-3.17,1.45-6.36,2.18-9.59,2.18-4.15,0-7.77-.88-10.85-2.65-3.08-1.76-5.47-4.32-7.15-7.67-1.68-3.35-2.52-7.34-2.52-11.99v-30.66h12.66v28.44c0,4.09,1,7.25,2.99,9.5,1.99,2.24,4.77,3.36,8.33,3.36,2.34,0,4.49-.56,6.45-1.68,1.96-1.12,3.51-2.64,4.65-4.55,1.14-1.91,1.71-4.02,1.71-6.33v-28.73Z"/>
          <path class="cls-3" d="m267.07,248.86c-1.2-.71-2.14-1.64-2.82-2.79-.68-1.15-1.01-2.37-1.01-3.66s.34-2.51,1.01-3.68c.68-1.17,1.62-2.12,2.82-2.84,1.2-.72,2.56-1.09,4.08-1.09s2.88.36,4.08,1.09c1.2.73,2.14,1.67,2.82,2.84.68,1.17,1.01,2.4,1.01,3.68s-.34,2.51-1.01,3.66c-.68,1.15-1.62,2.09-2.82,2.79-1.2.71-2.56,1.06-4.08,1.06s-2.88-.35-4.08-1.06Zm10.31,59.56h-12.61v-51.88h12.61v51.88Z"/>
          <path class="cls-3" d="m344.63,308.43h-12.66v-37.35h-9.6v-11.62h9.55v-12.42h12.71v12.42h10.7v11.62h-10.7v37.35Z"/>
          <path class="cls-3" d="m398.32,258.11c3.1,1.76,5.49,4.32,7.17,7.67,1.68,3.35,2.52,7.34,2.52,11.99v30.66h-12.66v-28.44c0-4.09-1-7.25-2.99-9.49-1.99-2.24-4.79-3.36-8.38-3.36-2.34,0-4.49.56-6.45,1.68-1.96,1.12-3.5,2.64-4.62,4.55-1.12,1.91-1.68,4.02-1.68,6.33v28.73h-12.56v-74.08h12.56v27.84c2.01-2.01,4.48-3.63,7.42-4.87,2.93-1.24,5.88-1.85,8.85-1.85,4.12,0,7.73.88,10.83,2.65Z"/>
          <path class="cls-3" d="m454.3,256.6h10.98v51.83h-11.03l-.89-6.08c-1.98,2.27-4.3,4.06-6.97,5.37s-5.65,1.95-8.95,1.95c-4.68,0-9.03-1.21-13.03-3.63-4.01-2.42-7.18-5.7-9.52-9.84-2.34-4.14-3.51-8.68-3.51-13.62s1.18-9.49,3.54-13.62c2.36-4.14,5.53-7.42,9.52-9.84,3.99-2.42,8.32-3.63,13.01-3.63,3.36,0,6.39.66,9.07,1.98,2.69,1.32,5.02,3.13,7,5.44l.79-6.28Zm-8.26,39.14c2.27-1.3,4.07-3.1,5.39-5.39,1.32-2.29,1.98-4.87,1.98-7.74s-.66-5.46-1.98-7.79c-1.32-2.32-3.12-4.15-5.39-5.46-2.27-1.32-4.78-1.98-7.52-1.98s-5.18.66-7.42,1.98c-2.24,1.32-4.01,3.14-5.29,5.46-1.29,2.32-1.93,4.92-1.93,7.79s.64,5.46,1.93,7.76c1.29,2.31,3.04,4.1,5.27,5.39,2.23,1.29,4.71,1.93,7.44,1.93s5.24-.65,7.52-1.95Z"/>
          <path class="cls-3" d="m314.26,280.81c-2.61-1.3-5.8-2.43-9.59-3.39-2.77-.72-4.91-1.39-6.43-2-1.52-.61-2.6-1.26-3.24-1.95-.64-.69-.96-1.52-.96-2.47,0-1.38.63-2.47,1.9-3.26s3.14-1.19,5.61-1.19c2.27,0,4.71.43,7.29,1.29,2.47.82,4.58,1.79,6.34,2.91,0,0,1.49-6.77,2.44-11.27-1.73-.92-3.56-1.7-5.51-2.34-3.48-1.14-6.83-1.71-10.06-1.71-4.29,0-8,.68-11.13,2.05-3.13,1.37-5.52,3.21-7.17,5.54-1.65,2.32-2.47,4.92-2.47,7.79,0,4.09,1.54,7.44,4.62,10.06,3.08,2.62,7.2,4.57,12.34,5.86,2.93.73,5.23,1.42,6.87,2.08,1.65.66,2.85,1.37,3.61,2.13.76.76,1.14,1.68,1.14,2.77,0,1.62-.73,2.87-2.2,3.76-1.47.89-3.45,1.34-5.96,1.34-2.9,0-5.88-.55-8.93-1.66-2.98-1.08-5.57-2.39-7.77-3.92l-3.6,10.58c2.51,1.61,5.22,2.93,8.13,3.95,3.92,1.38,8.11,2.08,12.56,2.08,4.02,0,7.6-.7,10.73-2.1,3.13-1.4,5.55-3.33,7.27-5.79,1.71-2.46,2.57-5.22,2.57-8.28s-.75-5.65-2.25-7.74c-1.5-2.09-3.55-3.79-6.16-5.09Z"/>
        </g>
      </g>
    </g>
  </g>
</svg>